<svg xmlns="http://www.w3.org/2000/svg" width="255" height="128" viewBox="0 0 255 128">
	<style>
	</style>
	<g id="3">
		<g id="Meter">
			<path id="Shape 2" fill="#ffc815" d="M56.58 127.9c0-25.34 9.77-42.65 28.43-57.29L50.17 28.26C20.25 51.4.99 87.41.99 127.9z"/>
			<path id="Shape 3" fill="#a3cd3b" d="M90.68 67c12.16-7.85 26.3-12.2 38.35-12.2 12.09 0 23.7 2.29 38.39 12.2l34.52-43.04c-20.54-14.46-45.69-23-72.9-23-27.17 0-52.33 8.54-72.91 23z"/>
			<path id="Shape 4" fill="#0093d7" d="M172.57 70.61c17.09 13.89 27.49 31.95 27.49 57.29h53.99c0-40.49-18.67-76.5-47.79-99.64z"/>
		</g>
	</g>
</svg>
